<?xml version="1.0" encoding="utf-8"?>
<!-- Generator: Adobe Illustrator 15.1.0, SVG Export Plug-In . SVG Version: 6.00 Build 0)  -->
<!DOCTYPE svg PUBLIC "-//W3C//DTD SVG 1.1//EN" "http://www.w3.org/Graphics/SVG/1.1/DTD/svg11.dtd">
<svg version="1.1" id="Layer_1" xmlns="http://www.w3.org/2000/svg" xmlns:xlink="http://www.w3.org/1999/xlink" x="0px" y="0px"
	 width="224.196px" height="275.073px" viewBox="35.677 -45.288 224.196 275.073"
	 enable-background="new 35.677 -45.288 224.196 275.073" xml:space="preserve">
<g>
	<g>
		<g>
			<path fill="#FFFFFF" d="M119,209.896h-4.647v-12.052c0-0.928-0.048-1.523-0.143-1.784c-0.19-0.546-0.644-0.819-1.359-0.819
				c-0.977,0-2.038,0.51-3.181,1.534v13.12h-4.539v-11.847c0-0.946-0.06-1.588-0.179-1.92c-0.217-0.592-0.709-0.888-1.478-0.888
				c-1.058,0-2.112,0.461-3.169,1.385v13.27h-4.648v-12.761c0-2.311-0.227-3.872-0.68-4.682l4.325-1.181
				c0.262,0.429,0.476,1.049,0.645,1.859c1.286-1.239,2.775-1.859,4.468-1.859c1.501,0,2.74,0.503,3.718,1.502
				c0.19,0.213,0.429,0.512,0.714,0.894c1.572-1.597,3.301-2.396,5.184-2.396c1.834,0,3.145,0.489,3.933,1.465
				c0.689,0.882,1.036,2.266,1.036,4.147L119,209.896L119,209.896z"/>
			<path fill="#FFFFFF" d="M138.802,200.673c0,2.79-0.679,5.052-2.038,6.792c-1.478,1.884-3.575,2.825-6.291,2.825
				c-2.646,0-4.707-0.94-6.184-2.825c-1.359-1.717-2.038-3.932-2.038-6.648s0.678-4.945,2.038-6.685
				c1.477-1.932,3.539-2.896,6.184-2.896c2.668,0,4.754,0.931,6.256,2.789C138.111,195.74,138.802,197.955,138.802,200.673z
				 M133.583,200.656c0-1.673-0.132-2.93-0.394-3.766c-0.454-1.408-1.335-2.113-2.646-2.113c-1.262,0-2.12,0.729-2.574,2.185
				c-0.262,0.838-0.393,2.093-0.393,3.767c0,1.816,0.12,3.119,0.357,3.906c0.429,1.483,1.323,2.223,2.681,2.223
				C132.594,206.857,133.583,204.789,133.583,200.656z"/>
			<path fill="#FFFFFF" d="M154.709,206.573l-1.143,3.323H140.09v-2.966l8.626-11.868h-7.914v-3.36h13.585v3.286l-8.078,11.584
				L154.709,206.573L154.709,206.573z"/>
			<path fill="#FFFFFF" d="M162.502,186.553c0,0.836-0.287,1.538-0.857,2.108c-0.572,0.573-1.277,0.857-2.11,0.857
				c-0.809,0-1.501-0.29-2.071-0.873c-0.573-0.585-0.858-1.281-0.858-2.093c0-0.834,0.291-1.536,0.874-2.108
				c0.585-0.573,1.295-0.859,2.128-0.859c0.834,0,1.524,0.286,2.074,0.859C162.227,185.017,162.502,185.719,162.502,186.553z
				 M161.931,209.896h-4.79v-18.015l4.79-0.751V209.896z"/>
			<path fill="#FFFFFF" d="M173.763,209.855c-0.86,0.337-1.812,0.506-2.859,0.506c-2.218,0-3.635-0.835-4.256-2.506
				c-0.286-0.764-0.428-2.136-0.428-4.116v-13.672c0-2.147-0.085-3.986-0.249-5.514l4.896-1.11c0.166,0.929,0.249,2.515,0.249,4.755
				v14.264c0,1.834,0,2.729,0,2.68c0.119,1.266,0.548,1.895,1.288,1.895c0.189,0,0.368-0.021,0.536-0.071L173.763,209.855z"/>
			<path fill="#FFFFFF" d="M183.377,209.855c-0.857,0.337-1.812,0.506-2.859,0.506c-2.218,0-3.635-0.835-4.255-2.506
				c-0.284-0.764-0.428-2.136-0.428-4.116v-13.672c0-2.147-0.082-3.986-0.252-5.514l4.9-1.11c0.167,0.929,0.25,2.515,0.25,4.755
				v14.264c0,1.834,0,2.729,0,2.68c0.118,1.266,0.546,1.895,1.286,1.895c0.19,0,0.368-0.021,0.536-0.071L183.377,209.855z"/>
			<path fill="#FFFFFF" d="M200.571,207.894l-2.537,2.93c-1.241-0.521-2.099-1.261-2.576-2.213
				c-0.477,0.451-0.846,0.773-1.107,0.964c-0.931,0.667-2.157,1.001-3.682,1.001c-1.955,0-3.468-0.465-4.541-1.392
				c-1.166-0.973-1.75-2.412-1.75-4.312c0-4.181,2.92-6.271,8.76-6.271c0.381,0,0.737,0,1.07,0v-0.743
				c0-0.968-0.119-1.627-0.356-1.98c-0.285-0.473-0.879-0.709-1.78-0.709c-1.474,0-3.23,0.679-5.271,2.039l-2.029-3.432
				c0.857-0.549,1.848-1.048,2.966-1.502c1.765-0.715,3.432-1.073,5.005-1.073c3.192,0,5.161,1.06,5.899,3.181
				c0.237,0.692,0.345,1.788,0.32,3.29l-0.108,6.47c0,0.953,0.095,1.668,0.286,2.145
				C199.381,206.833,199.855,207.371,200.571,207.894z M194.103,201.889h-0.211c-1.434,0-2.43,0.118-2.993,0.359
				c-0.939,0.404-1.408,1.215-1.408,2.43c0,0.666,0.184,1.232,0.554,1.696s0.888,0.699,1.556,0.699c0.904,0,1.739-0.419,2.503-1.252
				V201.889L194.103,201.889z"/>
		</g>
		<g>
			<path fill="#FFFFFF" d="M122.632,225.464c0,2.67-1.81,4.006-5.429,4.006h-5.772v-14.153h6.22c1.336,0,2.403,0.32,3.203,0.962
				c0.8,0.642,1.2,1.507,1.2,2.597c0,1.492-0.677,2.521-2.029,3.083C121.763,222.661,122.632,223.83,122.632,225.464z
				 M118.441,219.454c0-0.912-0.605-1.372-1.818-1.372h-1.713v2.69h1.555c0.756,0,1.275-0.102,1.555-0.303
				C118.3,220.269,118.441,219.929,118.441,219.454z M118.652,225.069c0-1.02-0.667-1.527-2.002-1.527h-1.661v3.213h1.661
				C117.984,226.754,118.652,226.193,118.652,225.069z"/>
			<path fill="#FFFFFF" d="M137.284,229.47h-4.163c-0.316-0.457-0.826-1.247-1.53-2.372c-0.86-1.458-1.427-2.378-1.699-2.756
				c-0.272-0.376-0.515-0.566-0.725-0.566l-0.236,0.027v5.667h-3.453v-14.18h5.481c1.881,0,3.234,0.405,4.06,1.213
				s1.24,1.836,1.24,3.081c0,0.968-0.286,1.829-0.857,2.584c-0.571,0.756-1.243,1.213-2.016,1.373
				C134.263,224.54,135.564,226.52,137.284,229.47z M132.594,219.585c0-0.596-0.179-1.027-0.539-1.291
				c-0.362-0.265-1.007-0.396-1.939-0.396h-1.212v3.35h1.159c0.931,0,1.584-0.134,1.963-0.396
				C132.405,220.588,132.594,220.166,132.594,219.585z"/>
			<path fill="#FFFFFF" d="M151.359,229.47h-3.716l-1.081-3.005h-4.191l-1.001,3.005h-3.715l5.218-14.207h3.584L151.359,229.47z
				 M145.771,223.857c-0.58-2.162-0.992-3.908-1.236-5.244c-0.283,1.336-0.722,3.082-1.319,5.244H145.771z"/>
			<path fill="#FFFFFF" d="M164.143,224.831c0,1.496-0.61,2.692-1.833,3.597c-1.221,0.903-2.842,1.357-4.861,1.357
				c-1.812,0-3.541-0.396-5.194-1.186l1.161-2.688c1.633,0.703,3.038,1.054,4.217,1.054c1.67,0,2.504-0.464,2.504-1.395
				c0-0.774-0.614-1.301-1.844-1.582l-1.794-0.423c-2.44-0.581-3.663-1.976-3.663-4.19c0-1.317,0.536-2.397,1.608-3.24
				c1.072-0.844,2.451-1.266,4.138-1.266c2.162,0,3.97,0.483,5.43,1.449l-1.661,2.45c-1.335-0.703-2.566-1.054-3.688-1.054
				c-0.563,0-1.021,0.118-1.371,0.355c-0.353,0.237-0.527,0.551-0.527,0.935c0,0.354,0.102,0.616,0.303,0.791
				c0.202,0.175,0.594,0.336,1.173,0.476l1.897,0.447C162.807,221.353,164.143,222.722,164.143,224.831z"/>
			<path fill="#FFFFFF" d="M171.045,229.47h-3.661v-14.127h3.661V229.47z"/>
			<path fill="#FFFFFF" d="M184.12,226.623l-0.74,2.847h-8.274v-14.127h3.558l0.026,11.28H184.12z"/>
		</g>
	</g>
	<g>
		<path fill="#A19F98" d="M147.775,178.907c-61.811,0-112.098-50.286-112.098-112.098c0-61.811,50.287-112.098,112.098-112.098
			c61.811,0,112.098,50.287,112.098,112.098S209.586,178.907,147.775,178.907z"/>
		<circle fill="#D8D3C8" cx="147.775" cy="66.81" r="107.167"/>
		<g>
			<path fill="#D8D3C8" d="M147.775,167.908c-55.746,0-101.099-45.353-101.099-101.099c0-55.746,45.353-101.098,101.099-101.098
				S248.874,11.064,248.874,66.81C248.874,122.556,203.521,167.908,147.775,167.908z"/>
			<path fill="none" stroke="#A19F98" stroke-width="2" stroke-miterlimit="10" stroke-dasharray="5.9802,5.9802" d="
				M147.775,167.908c-55.746,0-101.099-45.353-101.099-101.099c0-55.746,45.353-101.098,101.099-101.098
				S248.874,11.064,248.874,66.81C248.874,122.556,203.521,167.908,147.775,167.908z"/>
		</g>
		<g>
			<g>
				<path fill="#4D4E53" d="M152.029,4.229l0.311,0.738c0,0-0.467,0.699,0,1.979c-2.954,0.894-1.865-1.746-1.865-1.746
					L152.029,4.229z"/>
				<path fill="#4D4E53" d="M150.202-1.321l0.776,0.427c0,0-1.785,2.367-1.127,5.316c-2.909,0.855-0.695-5.083-0.695-5.083
					L150.202-1.321z"/>
				<path fill="#4D4E53" d="M97.07,61.011l3.454,3.92c0,0-2.483-0.388-3.725,1.786c-2.95,0.854,0.932-4.036,0.932-4.036
					L97.07,61.011z"/>
				<path fill="#4D4E53" d="M92.721,59.808l2.059,5.085c0,0-1.205-0.623-2.328,0.62c-2.098-2.058,0.93-4.036,0.93-4.036
					L92.721,59.808z"/>
				<path fill="#4D4E53" d="M91.327,59.303l0.387,3.493c0,0-1.202-1.124-2.252,0.66c-2.097-2.018,0.853-4.075,0.853-4.075
					L91.327,59.303z"/>
				<path fill="#4D4E53" d="M90.159,54.026l1.125,4.462c0,0-1.979-2.173-3.024-0.348c0.113-2.135,2.016-3.222,2.016-3.222
					L90.159,54.026z"/>
				<path fill="#4D4E53" d="M141.197-1.904l0.816-0.698c0,0,0.038,2.561,2.911,3.415c-0.661,2.989-3.727,0.933-3.727,0.933V-1.904z"
					/>
				<path fill="#4D4E53" d="M137.471,2.406l0.701-0.699c0,0,0.775,2.134,3.685,2.95c-0.698,3.027-3.803,1.436-3.803,1.436
					L137.471,2.406z"/>
				<path fill="#4D4E53" d="M197.127,85.269l-1.593,4.463c0,0-3.763-2.95-5.549,0.466c-0.66-2.99,1.861-6.832,1.861-6.832
					L197.127,85.269z"/>
				<path fill="#4D4E53" d="M131.649,119.888l-0.503,2.564c0,0,1.125,0.853,0.814,2.6c2.601-1.669,6.288-4.502,6.288-4.502
					L131.649,119.888z"/>
				<path fill="#4D4E53" d="M134.056,115.851l-1.438,2.563c0,0,0.584,0.583,0.08,2.212c2.601-1.667,4.387-1.94,4.387-1.94
					L134.056,115.851z"/>
			</g>
			<path fill="#F7F4EC" d="M214.399,44.049l-0.35-1.319l-0.192-1.708l-0.547-1.629l-0.581-1.631l-0.775-0.583l-0.815-0.62
				l-1.786-0.115c0,0-2.017-0.195-2.327-0.35c-0.738-0.389-1.978-1.126-2.214-1.32c-0.193-0.193-0.231-0.271-0.659-0.388
				l-0.66-0.389l-1.786-1.785c-2.016-2.057-4.734-4.115-7.141-5.396l-1.668-0.853h-2.912h-2.911l-0.232-0.233l-0.234-0.233
				l-1.24-0.04l-1.242-0.038l-1.786-0.893l-1.786-0.854l-1.474,0.465c-0.816,0.234-1.668,0.583-1.865,0.699l-0.349,0.234
				l-0.076-0.698l-0.117-0.66l-0.272,0.155l-0.231,0.155l-0.312-0.776c-0.193-0.388-0.31-0.814-0.349-0.931
				c0-0.156-0.466-0.699-1.046-1.32l-1.012-1.087l-0.854,0.155l-0.852,0.117v-0.233c0-0.156-0.272-0.505-0.622-0.854l-0.659-0.621
				h-0.504h-0.467l-0.583-0.544l-0.581-0.542l-0.349,0.115l-0.311,0.117l-0.853-0.466L166,16.725l-0.272,0.155l-0.234,0.156v-0.271
				v-0.233l-1.668-0.35l-1.668-0.348l-0.584,0.27c-0.311,0.194-0.543,0.234-0.543,0.117c0-0.078-0.62-0.04-0.931,0.504l-0.543,0.932
				l-0.697,0.583l-0.272,0.854l-0.584,0.311l-0.853,1.124l-0.581,0.312c-0.778,0.426-0.778,0.426-0.857-0.272l-0.038-0.582h0.584
				h0.543l0.621-0.583c0-0.155,0.387-0.66,0.814-1.164l0.815-0.933l0.038-0.543c0.039-0.271,0.156-0.893,0.272-1.32l0.231-0.815
				l-0.854-0.155c-0.465-0.116-1.396-0.31-2.058-0.465l-1.165-0.234l-0.503,0.234l-0.504,0.271l-1.669-0.31l-1.67-0.311
				l-0.814,0.427l-0.814,0.388l-0.31,1.398l-0.31,1.397l-0.271,0.077c-0.195,0.041-1.01,0.505-1.866,1.05
				c-0.853,0.542-1.744,0.969-1.938,0.969h-0.391l0.816-0.738c0.466-0.388,0.815-0.815,0.776-0.97c0-0.116,0-0.544,0-0.893
				l0.039-0.699l1.553-1.63c0.815-0.894,1.744-1.669,2.017-1.747l0.467-0.155l0.583-1.086l0.581-1.048l0.621-0.156l0.661-0.155
				l0.348-0.739c0.194-0.426,0.351-1.047,0.351-1.436v-0.66l-0.389-0.504l-0.349-0.504l-0.894-0.234l-0.893-0.232l-0.854-1.747
				l-0.856-1.708l-0.58-2.678l-0.583-2.677l-0.35-0.583l-0.387-0.583h-0.622h-0.66L145.7-3.498l-0.193,0.738l-1.206,1.436
				l-1.164,1.436l-0.775,1.629c-0.466,0.932-1.009,1.902-1.281,2.173l-0.464,0.544h-0.699h-0.698V4.226V3.954l-1.244,0.117
				c-0.698,0.039-1.706,0.194-2.21,0.271l-0.933,0.156l-1.554-0.776l-1.513-0.776l-1.202,0.311l-1.205,0.349l-0.542-0.195
				l-0.542-0.154l-0.466,0.154c-0.272,0.116-0.546,0.39-0.622,0.622l-0.193,0.466l0.503,0.737l0.506,0.776l-0.933-0.194
				c-0.504-0.116-1.786-0.272-2.831-0.31l-1.864-0.079l-0.699,0.544l-0.736,0.583h-0.545h-0.504l-0.193,0.271l-0.194,0.31h-0.661
				h-0.701l-0.97,0.738l-0.966,0.699l-0.778-0.35c-1.205-0.504-1.978-1.125-2.562-2.057l-0.542-0.776l0.193-0.349l0.231-0.35
				l-0.659-0.465l-0.66-0.465l0.157-1.205c0.116-0.699,0.271-1.708,0.389-2.29l0.152-1.087l0.545-0.388l0.504-0.389l-0.465-1.436
				l-0.467-1.475h-0.658h-0.698v-0.272c0-0.195,0.154-0.582,0.349-0.894l0.349-0.542l-0.505-0.776l-0.504-0.775l-0.971,0.154
				c-0.504,0.116-1.125,0.233-1.319,0.271l-0.349,0.116l0.155,0.582l0.155,0.583l-0.66,0.776l-0.701,0.776h-0.581h-0.584
				l-1.007,0.621l-0.971,0.62l-1.475,0.079l-1.473,0.077l-0.778,0.505l-0.776,0.504v0.583v0.621l-0.232-0.039
				c-0.117,0-0.542-0.272-0.971-0.582l-0.739-0.583h-1.513h-1.474l-0.387-0.35l-0.312-0.349l-0.701-0.078
				c-0.387,0-0.929-0.155-1.201-0.272L91.21-3.383v0.621v0.62l1.008,0.816l1.049,0.775v0.932v0.932l0.505,1.358
				c0.269,0.737,0.618,1.513,0.774,1.708l0.311,0.389h1.088l1.088,0.04l-0.66,0.232c-0.353,0.156-0.74,0.428-0.857,0.583
				l-0.193,0.31h-0.58H94.16l-0.194,0.933l-0.155,0.931l-0.505,0.156c-0.272,0.079-0.659,0.233-0.932,0.388
				c-0.232,0.154-0.892,0.504-1.474,0.738l-1.008,0.466l-0.854,0.969l-0.814,0.971v-0.737v-0.7L87.68,10.28
				c-0.271,0.116-1.01,0.349-1.593,0.544l-1.123,0.31l-1.05-0.815l-1.046-0.775H82.44h-0.427l0.154-0.7l0.118-0.659l-0.933-1.281
				L80.38,5.665l-0.854,0.583c-0.466,0.35-0.932,0.776-1.048,0.933l-0.196,0.31l-0.58-0.545l-0.583-0.543l-0.504,0.66l-0.503,0.659
				l-2.95,0.077L70.21,7.877V8.77c0,0.504,0.039,1.203,0.039,1.552l0.039,0.66l1.281,0.116l1.281,0.078l0.079,0.737l0.115,0.737
				l-0.467-0.426l-0.461-0.389l-1.361,0.428l-1.357,0.387v1.708v1.708l0.892,0.622l0.895,0.659v0.389
				c0,0.234,0.231,0.893,0.504,1.474l0.504,1.01l-0.542,3.26c-0.622,4.075-1.593,9.083-1.749,9.238
				c-0.038,0.039-0.583-0.116-1.125-0.35l-1.046-0.427l-0.701,0.466l-0.66,0.466L64.7,33.3c-1.978,0.543-3.067,1.048-4.036,1.98
				c-0.349,0.349-1.046,0.931-1.513,1.241l-0.815,0.622l-0.038,1.009l-0.041,1.047l-0.388,0.738l-0.387,0.775v0.738v0.738
				l-1.205,1.358l-1.163,1.359l0.154,0.545l0.155,0.542l-0.427,0.504l-0.465,0.505l0.738,1.163c0.387,0.661,0.816,1.476,0.971,1.786
				c0.155,0.35,0.814,1.243,1.512,2.018l1.244,1.397l-0.312,0.583c-0.155,0.348-0.311,0.659-0.311,0.775v0.156h1.319h1.361
				l0.58,0.62l0.622,0.583v0.427v0.388l0.737,0.194l0.738,0.194l1.282-0.194l1.28-0.194l1.084-1.047l1.126-1.087v2.755v2.717
				l0.856,0.427l0.815,0.426l0.736-0.388l0.739-0.426h1.862h1.823l0.815,0.31l0.815,0.31l1.05-0.738
				c0.621-0.387,1.513-0.971,2.017-1.281c0.545-0.309,1.709-1.086,2.678-1.746c2.795-1.941,3.261-2.135,5.551-2.329l1.705-0.156
				l-0.155,1.242c-0.194,1.591-0.194,1.785,0.117,3.96l0.272,1.824l0.854,1.008c0.504,0.583,1.513,1.437,2.291,1.979l1.437,0.971
				h1.475h1.473l0.194,0.31l0.155,0.271h0.583h0.543l1.087,0.739l1.047,0.737l0.97,0.195l0.971,0.194l0.814,0.776l0.778,0.737
				l1.512-0.155l1.475-0.193l0.97,0.659l1.009,0.659l0.197,1.049l0.231,1.048l-0.117,1.63l-0.114,1.629l0.543,0.621l0.583,0.582
				l0.078,1.554l0.038,1.512l1.087,0.195c0.58,0.077,2.21,0.154,3.647,0.154h2.601l-0.27,0.894l-0.234,0.892l0.272,1.048
				l0.272,1.009l0.891,0.311l0.895,0.31l0.617,0.97l0.623,1.01l-0.194,1.902l-0.155,1.901l-0.932,2.175l-0.929,2.172l0.735,2.25
				l0.698,2.253l-0.156,1.977l-0.193,1.944l0.154,0.232c0.236,0.348,1.67,0.698,3.416,0.815l1.475,0.115l0.391-0.35l0.425-0.31
				l0.777,0.31c0.387,0.197,1.008,0.35,1.319,0.35h0.542l0.197,1.126c0.115,0.622,0.311,1.436,0.466,1.786
				c0.152,0.388,0.269,1.163,0.269,1.706v1.01l0.66,0.814l0.701,0.777l1.24-0.427l1.244-0.426l0.27,0.194
				c0.156,0.079,0.39,0.465,0.507,0.813l0.194,0.662l-0.349,1.94l-0.353,1.978l-0.27,0.155l-0.272,0.155v0.739v0.736l1.206-0.192
				l1.164-0.193l0.35,0.854c0.194,0.465,0.386,1.589,0.503,2.443l0.155,1.592l-0.349,0.699l-0.39,0.659l-1.744,0.854
				c-0.971,0.466-1.786,0.932-1.786,1.049c0,0.115-0.545,0.582-1.244,1.009c-1.593,0.932-2.987,2.406-4.813,4.969
				c-0.737,1.047-1.63,2.212-2.017,2.521c-0.349,0.311-0.892,0.97-1.244,1.397l-0.581,0.854l0.699,0.234l0.658,0.233l0.817-0.426
				l0.775-0.465l1.125,1.009l1.126,1.048l0.581,1.124l0.584,1.164l0.696-0.659l0.702-0.661l0.462,0.74l0.467,0.698l1.205,0.659
				c0.66,0.388,1.357,0.933,1.551,1.205l0.389,0.542l1.009,0.387l1.008,0.428l0.428,0.971l0.387,0.97l0.621,0.349l0.622,0.312
				l-0.622,1.047l-0.621,1.048v0.698c0,0.389,0.076,0.932,0.193,1.166l0,0c0.272,0.698,0.39,0.621,2.058-0.816l1.475-1.318
				l0.504-1.009c0.274-0.545,0.66-1.437,0.854-1.979l0.39-1.009l1.979-1.592c2.6-2.056,3.221-2.833,5.121-6.327l1.593-2.871
				l2.173-2.252l2.175-2.211v-0.466c0-0.271,0.233-1.088,0.505-1.825c0,0,0.349-0.736,0.621-1.397l0.077-0.698v-0.621l-0.272,0.154
				l-0.27,0.157l-0.312-0.894l-0.311-0.892l0.311-1.71c0.156-0.931,0.429-1.977,0.621-2.287l0.27-0.583l-0.462-0.352l-0.509-0.388
				l0.272-0.155l0.273-0.193l0.193,0.465l0.194,0.467l0.853-0.7l0.895-0.66v-0.387l0.038-0.39l1.281-0.815
				c0.697-0.465,1.709-1.163,2.29-1.63c0.584-0.425,1.708-1.048,2.482-1.395l1.437-0.621h0.854h0.856l0.387-0.389
				c0.231-0.234,0.97-0.584,1.592-0.816c0.661-0.194,1.396-0.466,1.63-0.583l0.467-0.232v-0.467c0-0.233,0.112-0.542,0.231-0.66
				l0.193-0.232l0.466,0.388l0.466,0.389v-0.35v-0.348l0.272,0.153l0.312,0.195h3.764h3.765l0.231-0.233
				c0.119-0.155,0.272-0.582,0.35-1.009l0.078-0.738l1.513-0.582c0.815-0.351,1.672-0.699,1.865-0.854l0.349-0.232v-1.047v-1.009
				l0.466-1.049l0.426-1.048l0.97-1.009c0.545-0.542,1.281-1.318,1.593-1.707l0.62-0.776c-0.583-1.668,0.58,0.271,1.437-2.368
				c0.114-0.464,0.312-1.823,0.468-3.025l0.23-2.175l0.312-2.056l0.465-1.863l1.357,0.659v-1.319l0.854-2.601l0.856-2.64
				l-0.273-2.329l-0.311-2.368l0.467-1.318l0.467-1.358l-0.273-0.467l-0.272-0.465l0.312-0.194l0.312-0.194v-0.815v-0.854
				l0.545-0.504c0.618-0.271-0.312-1.473-0.235-1.591l0.545-0.155l0.854,1.669l0.697-0.583c1.088-0.97,3.261-3.92,3.844-5.239
				c0.35-0.699,0.774-1.513,1.008-1.824l0.427-0.506c0.661-0.62,1.125-0.776,1.671-1.318c0.621-0.271,1.24-0.466,1.318-0.505
				c0.117,0,0.66-0.582,1.24-1.32l1.049-1.28c0.543-0.233,0.892-0.659,1.358-1.242l1.437-1.863c0.777-1.048,1.556-2.133,1.669-2.484
				c0.31-0.698,0.115-0.193,0.272-1.357l0.231-2.29l0.154-2.019C214.592,44.787,214.71,44.478,214.399,44.049z"/>
			<path fill="#006838" d="M189.792,73.586c-1.823-1.862-2.095-4.385-1.009-5.744c-2.718,1.437-3.184,5.24-0.352,8.889
				c-1.085,0.542-1.63,0.775-2.483,0.309c-0.813-0.465-1.747-1.397-1.55-2.6c-0.74,1.125-1.475,2.368-0.234,4.308
				c0.738-0.465,3.764-0.271,3.881,2.058c-3.647,4.853-16.536-0.351-23.909,9.393c2.523-20.881-1.356-41.723-12.768-56.355
				c3.144,2.135,9.587,2.367,10.71-0.893c1.397-3.998-1.048-9.198-7.76-14.902c-3.961-3.377-5.746-9.937-2.021-13.041
				c0.117-0.194,0-0.622-0.268-0.776c-1.749,0.465-3.457,1.668-3.998,4.037c-1.204-2.096,0.234-7.025,2.948-9.159
				c-0.155-0.427-0.31-0.545-0.659-0.7c-3.261,1.281-5.588,5.395-5.55,9.276c-1.164-2.329-3.336-8.228-2.756-10.285
				c-0.582,0.155-0.737,0.193-1.241,0.544c-0.932,2.756,0.231,9.896,1.9,11.721c-1.475-1.28-4.852-6.093-4.501-7.956
				c-0.621-0.233-1.125-0.117-1.67,0.194c0,4.58,2.91,11.101,8.191,13.544c0.076,1.32-2.331,2.291-3.881-0.232
				c0.037,1.94,0.465,2.95,2.521,4.463c0.931-0.738,2.408-1.319,4.231-0.542c2.833,1.164,3.339,14.088-1.707,6.87
				c-5.044-7.181-13.12-14.516-24.22-14.322c-1.512,0.04-3.223,0.776-4.89,0.816c-3.65,0.116-7.374-1.086-10.985,0.387
				c-1.475,0.776-2.172,2.252-3.571,3.26c-2.794,1.98-7.449,1.087-9.159,4.464c-0.117,0.814-0.155,2.95-0.231,3.804
				c-3.223,3.377-5.201,7.801-4.89,11.993c0.619,1.087,1.786,3.999,2.714,4.813c10.48,1.553,21.774-1.049,27.013-7.84
				c4.272-5.513,6.406-0.543,5.902,2.213c-2.953,15.407-19.757,15.602-22.9,16.106c-2.172,0.233-3.377-0.815-2.756-2.717
				c-2.408-0.427-5.432,0.776-7.57,2.406c2.096-0.814,4.62-0.271,4.231,0.933c-1.979,0.619-5.744,2.017-6.442,3.919
				c-0.116,0.659-0.038,1.165,0.156,1.902c1.007-1.747,1.979-2.291,3.647-2.679c-1.474,1.242-2.715,3.027-3.684,6.676
				c0.192,0.504,0.58,0.854,1.24,1.319c0.389-2.871,1.708-4.074,3.221-4.694c-0.854,1.203-1.474,3.298-1.356,6.015
				c0.269,0.427,0.774,0.543,1.125,0.738c0-2.368,0.736-4.269,2.017-5.743c-0.231,1.823,0.272,5.861,1.125,7.218
				c0.387,0.117,0.815,0.04,1.203-0.271c-2.017-6.638,1.67-11.761,5.044-11.256c8.81,1.358,27.597-3.026,26.546-12.808
				c12.771,28.565,0.353,36.056,13.082,60.003c-3.105-1.474-8.344-3.066-11.915-1.786c-2.059,2.173-0.545,4.852,0.542,7.374
				c1.593,3.726,4.23,7.258,7.218,9.043c-0.503,0.389,0,0.117-0.813,0.583c-0.232-0.933-1.396-1.553-2.447-2.02
				c-0.776,0.66-0.97,0.814-1.438,2.562c0.429,0.078,1.283,0.698,1.168,1.165c-0.507-0.038-1.63,0.154-2.137,0.31
				c-0.232,0.894-0.617,1.047-0.503,2.523c0.659-0.116,1.166-0.195,1.591,0.077c-2.873,1.747-4.772,6.598-3.996,8.966
				c1.164-2.56,3.063-5.317,5.16-5.861c-1.085,2.873-1.438,9.354,3.145,14.748c-4.697-8.771,0.774-18.59,4.734-18.63
				c-1.398,3.726,2.29,9.588,5.395,11.763c-4.23-7.881-1.94-10.869-1.94-13.47c0.038-3.571-3.534-6.753-4-8.345
				c-0.66-2.29,1.398-5.473,4.621,0.854c3.222,6.327,6.714,13.273,11.876,18.668c22.394,23.559,51.425,13.041,62.06,0.738
				c9.355-10.828,12.149-20.299,11.141-37.143c-1.168-20.725-9.549-29.031-13.195-45.565c-7.843-35.745,8.768-46.225,16.92-49.756
				c-7.841,2.096-27.245,13.428-26.274,43.701c0.621,19.407,15.33,41.452,6.676,61.284c-2.988,6.792-11.1,21.153-26.043,20.649
				c-6.326-0.234-21.27-7.607-21.541-19.99c-0.427-17.853,22.821-19.172,23.867-19.135c1.827,0.08,4.387,2.018,4.193,3.766
				c1.126-0.039,2.407-3.998,1.747-5.434c-4.23-9.314,2.987-19.057,5.862-21.812c-6.756,4.152-7.995,6.209-10.093,11.604
				c-0.97-5.084,1.9-8.112,3.417-9.781C193.401,65.32,189.754,69.977,189.792,73.586z"/>
			<g>
				<path fill="#8DC63F" d="M188.008,80.417c-0.428-1.941-3.146-2.095-3.844-1.669c-0.27-0.388-0.425-0.776-0.543-1.125
					c0.076,0.7,0.272,1.437,0.698,2.135C185.018,79.291,187.58,78.594,188.008,80.417z"/>
				<path fill="#8DC63F" d="M164.137,90.238c0.038-0.429,0.078-0.815,0.117-1.204C164.215,89.422,164.175,89.809,164.137,90.238z"/>
				<path fill="#8DC63F" d="M167.787,107.78c-0.429-17.815,22.43-20.88,23.479-20.842c1.786,0.038,4.463,1.046,4.269,2.794
					c0.194-1.748-2.364-3.687-4.191-3.766c-1.047-0.038-24.295,1.281-23.867,19.135C167.476,106.032,167.59,106.926,167.787,107.78z
					"/>
				<path fill="#8DC63F" d="M90.626,41.218c10.48,1.552,21.581,1.086,26.857-5.706c3.301-4.27,5.474-2.329,6.057,0.039
					c0.504-2.755-1.63-7.646-5.902-2.173C112.4,40.168,101.106,42.77,90.626,41.218z"/>
				<path fill="#8DC63F" d="M88.957,52.318c2.097-0.854,5.978-1.204,5.589,0c0.389-1.204-2.135-1.747-4.231-0.933
					c0,0,0.041,0,0.041-0.04C89.852,51.697,89.345,52.007,88.957,52.318z"/>
				<path fill="#8DC63F" d="M189.557,73.353c0.08,0.079,0.156,0.156,0.235,0.233c0-2.134,1.24-4.579,2.871-6.481
					C191.032,68.928,189.754,71.296,189.557,73.353z"/>
				<path fill="#8DC63F" d="M141.197,17.347c0.391,1.126,1.165,2.135,2.408,3.066c0.97-0.699,2.017-1.242,3.803-0.504
					c1.554,0.659,2.486,4.657,2.135,6.87c0.545-2.368-0.35-6.947-1.979-7.646c-1.823-0.776-3.3-0.195-4.231,0.543
					C142.169,18.823,141.546,18.125,141.197,17.347z"/>
				<path fill="#8DC63F" d="M97.884,48.98c-0.117,0-0.194-0.04-0.272-0.04C97.69,48.941,97.768,48.941,97.884,48.98z"/>
				<path fill="#8DC63F" d="M145.236,120.005c0-1.591-0.467-2.756-1.089-3.727C144.769,117.443,145.236,118.686,145.236,120.005z"/>
				<path fill="#8DC63F" d="M188.432,76.731c-1.941-2.484-2.326-5.085-1.513-6.908c-0.971,1.979-0.854,4.774,0.815,7.256
					C187.928,76.964,188.162,76.848,188.432,76.731z"/>
				<path fill="#8DC63F" d="M128.855,131.221c-0.038,0.08-0.077,0.156-0.114,0.233C128.779,131.377,128.817,131.3,128.855,131.221z"
					/>
				<path fill="#8DC63F" d="M141.236,111.661c0.156,0.465,0.545,1.087,1.049,1.784l0,0c-0.659-2.29,0.039-5.781,3.262,0.544
					c3.222,6.288,7.024,11.8,12.187,17.194c-5.162-5.395-8.654-12.343-11.876-18.668
					C142.634,106.226,140.576,109.371,141.236,111.661z"/>
				<path fill="#8DC63F" d="M141.781,121.712c-1.437,0-3.105,1.359-4.385,3.454c1.046-1.396,2.327-2.212,3.57-2.212
					c-1.397,3.728,3.105,8.346,6.21,10.52C144.071,131.3,140.383,125.438,141.781,121.712z"/>
				<path fill="#8DC63F" d="M133.901,125.594c-1.085,0.271-2.097,1.125-2.988,2.251c0.622-0.698,1.358-1.162,2.251-1.436
					c-1.087,2.911-0.7,8.539,3.882,13.933C132.464,134.948,132.817,128.467,133.901,125.594z"/>
				<path fill="#8DC63F" d="M162.079,32.95c-1.124,3.26-7.567,3.028-10.71,0.893c0.853,1.047,1.629,2.135,2.366,3.261
					c3.454,0.62,7.258,0.427,8.385-1.398c1.474-2.406,1.125-5.549-0.506-8.809C162.585,29.107,162.741,31.166,162.079,32.95z"/>
				<path fill="#8DC63F" d="M135.299,83.328c-1.163-11.644,1.748-21.347-6.91-40.674c1.05,9.781-17.736,14.166-26.546,12.807
					c8.81,1.359,22.277,1.126,27.168-8.15C135.492,65.824,133.942,73.781,135.299,83.328z"/>
			</g>
			<g>
				<path fill="#8DC63F" d="M232.254,0.308l0.154,0.234c0.232-0.117,0.466-0.234,0.697-0.35l-0.154-0.195
					C232.718,0.115,232.483,0.193,232.254,0.308z"/>
				<path fill="#8DC63F" d="M229.304,2.366c0.307-0.195,0.541-0.35,0.773-0.506l-0.312-0.464c-0.307,0.156-0.54,0.311-0.852,0.464
					L229.304,2.366z"/>
				<path opacity="0.2" fill="#8DC63F" enable-background="new    " d="M229.69,84.725c-0.08-0.27-0.08-0.542-0.155-0.854
					l-12.107,1.204c0.038,0.387,0.075,0.738,0.113,1.125L229.69,84.725z"/>
				<path opacity="0.6" fill="#8DC63F" enable-background="new    " d="M227.866,77.584c-0.117-0.35-0.235-0.661-0.349-1.009H215.91
					c0.08,0.465,0.194,0.893,0.273,1.319L227.866,77.584z"/>
				<path opacity="0.3" fill="#8DC63F" enable-background="new    " d="M229.304,83.017c-0.08-0.31-0.08-0.621-0.155-0.931
					l-11.995,0.893c0.039,0.426,0.118,0.815,0.155,1.204L229.304,83.017z"/>
				<path opacity="0.5" fill="#8DC63F" enable-background="new    " d="M228.409,79.408c-0.076-0.31-0.194-0.621-0.271-0.932
					l-11.76,0.31c0.079,0.389,0.192,0.815,0.271,1.242L228.409,79.408z"/>
				<path opacity="0.4" fill="#8DC63F" enable-background="new    " d="M228.912,81.232c-0.075-0.309-0.154-0.621-0.23-0.932
					l-11.876,0.583c0.076,0.426,0.155,0.815,0.194,1.242L228.912,81.232z"/>
				<path fill="#8DC63F" d="M230.854,1.396c0.234-0.155,0.543-0.272,0.775-0.427l-0.234-0.311c-0.307,0.116-0.542,0.233-0.852,0.349
					L230.854,1.396z"/>
				<path fill="#8DC63F" d="M220.801,11.215c0.236-0.387,0.505-0.775,0.739-1.125l-1.474-1.437c-0.311,0.349-0.622,0.66-0.932,1.01
					L220.801,11.215z"/>
				<path fill="#8DC63F" d="M219.675,13.233c0.236-0.388,0.429-0.814,0.661-1.242l-1.783-1.631c-0.312,0.35-0.622,0.739-0.933,1.089
					L219.675,13.233z"/>
				<path fill="#8DC63F" d="M222.046,9.351c0.271-0.349,0.503-0.698,0.775-1.007l-1.165-1.205c-0.351,0.272-0.658,0.583-0.969,0.895
					L222.046,9.351z"/>
				<path fill="#8DC63F" d="M227.788,3.452c0.272-0.193,0.545-0.387,0.814-0.582l-0.465-0.582c-0.308,0.194-0.582,0.349-0.893,0.542
					L227.788,3.452z"/>
				<path fill="#8DC63F" d="M226.274,4.695c0.272-0.233,0.543-0.465,0.815-0.698l-0.585-0.698c-0.31,0.232-0.618,0.426-0.928,0.621
					L226.274,4.695z"/>
				<path fill="#8DC63F" d="M224.8,6.091c0.271-0.27,0.542-0.543,0.814-0.774l-0.737-0.854c-0.312,0.233-0.619,0.465-0.932,0.699
					L224.8,6.091z"/>
				<path fill="#8DC63F" d="M223.401,7.644c0.272-0.309,0.505-0.621,0.775-0.893l-0.932-1.047c-0.31,0.271-0.617,0.543-0.928,0.815
					L223.401,7.644z"/>
				<path fill="#8DC63F" d="M217.116,46.07l-8.771-3.338c0,0.115,0,0.271,0.039,0.426c0,0.505,0.039,0.971,0.039,1.476l9.005,3.143
					C217.309,47.195,217.192,46.611,217.116,46.07z"/>
				<path fill="#8DC63F" d="M216.649,43.274l-8.306-3.455c0,0.66,0,1.281,0,1.94l8.577,3.261
					C216.806,44.438,216.727,43.857,216.649,43.274z"/>
				<path opacity="0.7" fill="#8DC63F" enable-background="new    " d="M227.245,75.683c-0.117-0.351-0.271-0.699-0.388-1.048
					l-11.489-0.271c0.117,0.465,0.23,0.893,0.311,1.358L227.245,75.683z"/>
				<path fill="#8DC63F" d="M224.957,69.705c-0.157-0.427-0.312-0.815-0.469-1.203l-11.021-1.165
					c0.116,0.504,0.271,1.01,0.428,1.475L224.957,69.705z"/>
				<path opacity="0.8" fill="#8DC63F" enable-background="new    " d="M226.12,72.655l-11.334-0.583
					c0.117,0.466,0.234,0.932,0.352,1.397l11.41,0.272C226.431,73.393,226.274,73.004,226.12,72.655z"/>
				<path fill="#8DC63F" d="M218.666,15.445c0.194-0.464,0.39-0.932,0.622-1.358l-2.214-1.902c-0.308,0.389-0.58,0.776-0.891,1.204
					L218.666,15.445z"/>
				<path fill="#8DC63F" d="M213.196,66.406l10.905,1.164c-0.195-0.427-0.351-0.854-0.545-1.28l-10.788-1.438
					C212.886,65.358,213.041,65.902,213.196,66.406z"/>
				<path opacity="0.9" fill="#8DC63F" enable-background="new    " d="M214.516,71.18l11.293,0.583
					c-0.155-0.389-0.309-0.776-0.467-1.166l-11.215-0.853C214.28,70.21,214.399,70.714,214.516,71.18z"/>
				<path fill="#8DC63F" d="M222.201,63.03c-0.155-0.466-0.35-0.932-0.545-1.396l-10.362-1.979c0.154,0.582,0.312,1.125,0.466,1.708
					L222.201,63.03z"/>
				<path fill="#8DC63F" d="M223.17,65.32c-0.193-0.426-0.387-0.854-0.542-1.32l-10.6-1.708c0.156,0.544,0.312,1.087,0.467,1.63
					L223.17,65.32z"/>
				<path fill="#8DC63F" d="M233.959-0.195c0.234-0.116,0.467-0.233,0.698-0.35c-0.231,0.079-0.543,0.155-0.774,0.271L233.959-0.195
					z"/>
				<path opacity="0.1" fill="#8DC63F" enable-background="new    " d="M230.001,86.471c0-0.31-0.079-0.582-0.156-0.855
					l-12.223,1.476c0.036,0.388,0.036,0.776,0.075,1.125L230.001,86.471z"/>
				<path fill="#8DC63F" d="M216.104,25.421c0.079-0.543,0.155-1.125,0.236-1.669l-4.231-2.911c-0.234,0.504-0.428,1.048-0.66,1.591
					L216.104,25.421z"/>
				<path fill="#8DC63F" d="M215.872,36.598c-0.037-0.583-0.076-1.202-0.116-1.785l-6.634-3.532
					c-0.117,0.622-0.197,1.243-0.273,1.901L215.872,36.598z"/>
				<path fill="#8DC63F" d="M215.717,33.766c0-0.584,0-1.203,0-1.786l-6.053-3.416c-0.156,0.583-0.272,1.203-0.387,1.825
					L215.717,33.766z"/>
				<path fill="#8DC63F" d="M215.835,28.177c0.037-0.583,0.077-1.164,0.155-1.747l-4.852-3.145
					c-0.194,0.583-0.349,1.126-0.544,1.708L215.835,28.177z"/>
				<path fill="#8DC63F" d="M215.717,30.971c0-0.621,0-1.204,0.039-1.786l-5.433-3.299c-0.155,0.582-0.312,1.163-0.466,1.747
					L215.717,30.971z"/>
				<path fill="#8DC63F" d="M217.076,20.22c0.154-0.544,0.272-1.048,0.427-1.553l-3.105-2.446c-0.272,0.466-0.542,0.97-0.775,1.437
					L217.076,20.22z"/>
				<path fill="#8DC63F" d="M216.495,22.781c0.116-0.544,0.231-1.088,0.348-1.63l-3.646-2.678c-0.235,0.504-0.508,1.009-0.739,1.514
					L216.495,22.781z"/>
				<path fill="#8DC63F" d="M217.814,17.775c0.154-0.504,0.31-1.009,0.503-1.475l-2.639-2.172c-0.272,0.426-0.542,0.893-0.814,1.319
					L217.814,17.775z"/>
				<path fill="#8DC63F" d="M220.376,58.217c-0.194-0.505-0.39-1.008-0.546-1.514l-9.894-2.523c0.112,0.622,0.269,1.204,0.425,1.825
					L220.376,58.217z"/>
				<path fill="#8DC63F" d="M216.104,39.432c-0.039-0.582-0.114-1.203-0.152-1.785l-7.221-3.532
					c-0.077,0.621-0.155,1.243-0.193,1.902L216.104,39.432z"/>
				<path fill="#8DC63F" d="M221.267,60.662c-0.193-0.466-0.349-0.97-0.541-1.476l-10.131-2.211
					c0.155,0.582,0.312,1.165,0.464,1.746L221.267,60.662z"/>
				<path fill="#8DC63F" d="M218.704,53.093c-0.151-0.544-0.269-1.086-0.425-1.629l-9.432-2.951c0.117,0.621,0.194,1.243,0.31,1.862
					L218.704,53.093z"/>
				<path fill="#8DC63F" d="M219.482,55.695c-0.155-0.544-0.312-1.049-0.467-1.593l-9.662-2.716c0.116,0.582,0.23,1.203,0.35,1.825
					L219.482,55.695z"/>
				<path fill="#8DC63F" d="M216.495,42.265c-0.117-0.621-0.194-1.202-0.273-1.786l-7.763-3.531c-0.038,0.62-0.076,1.28-0.076,1.94
					L216.495,42.265z"/>
				<path fill="#8DC63F" d="M218.045,50.455c-0.114-0.388-0.193-0.815-0.309-1.243c-0.04-0.155-0.04-0.271-0.078-0.427l-9.158-3.182
					c0.076,0.621,0.154,1.281,0.231,1.941L218.045,50.455z"/>
			</g>
		</g>
	</g>
</g>
</svg>
