<?xml version="1.0" encoding="utf-8"?>
<!-- Generator: Adobe Illustrator 15.1.0, SVG Export Plug-In . SVG Version: 6.00 Build 0)  -->
<!DOCTYPE svg PUBLIC "-//W3C//DTD SVG 1.1//EN" "http://www.w3.org/Graphics/SVG/1.1/DTD/svg11.dtd">
<svg version="1.1" id="Layer_1" xmlns="http://www.w3.org/2000/svg" xmlns:xlink="http://www.w3.org/1999/xlink" x="0px" y="0px"
	 width="369.7px" height="484.799px" viewBox="-37.075 -45.288 369.7 484.799"
	 enable-background="new -37.075 -45.288 369.7 484.799" xml:space="preserve">
<g>
	<g>
		<g>
			<path fill="#A19F98" d="M100.325,403.512h-7.663v-19.873c0-1.53-0.079-2.513-0.235-2.942c-0.314-0.901-1.062-1.352-2.24-1.352
				c-1.611,0-3.36,0.841-5.246,2.529v21.636h-7.485v-19.535c0-1.561-0.099-2.618-0.295-3.166c-0.357-0.976-1.169-1.464-2.437-1.464
				c-1.744,0-3.483,0.761-5.225,2.284v21.881h-7.666v-21.042c0-3.812-0.374-6.386-1.121-7.721l7.132-1.946
				c0.432,0.706,0.784,1.729,1.062,3.065c2.121-2.044,4.577-3.065,7.367-3.065c2.476,0,4.519,0.828,6.131,2.476
				c0.314,0.352,0.707,0.845,1.177,1.475c2.593-2.633,5.444-3.95,8.548-3.95c3.025,0,5.187,0.806,6.485,2.415
				c1.137,1.454,1.708,3.736,1.708,6.839L100.325,403.512L100.325,403.512z"/>
			<path fill="#A19F98" d="M132.979,388.303c0,4.601-1.12,8.331-3.36,11.2c-2.437,3.107-5.895,4.658-10.374,4.658
				c-4.362,0-7.761-1.55-10.197-4.658c-2.241-2.83-3.36-6.482-3.36-10.963s1.119-8.154,3.36-11.022
				c2.436-3.186,5.835-4.775,10.197-4.775c4.401,0,7.84,1.535,10.316,4.599C131.84,380.17,132.979,383.823,132.979,388.303z
				 M124.374,388.275c0-2.759-0.218-4.831-0.649-6.21c-0.748-2.322-2.201-3.485-4.363-3.485c-2.082,0-3.496,1.202-4.245,3.604
				c-0.432,1.382-0.647,3.45-0.647,6.21c0,2.996,0.197,5.144,0.588,6.442c0.708,2.445,2.181,3.665,4.421,3.665
				C122.742,398.5,124.374,395.091,124.374,388.275z"/>
			<path fill="#A19F98" d="M159.209,398.031l-1.884,5.48h-22.223v-4.892l14.225-19.569h-13.05v-5.542h22.403v5.419l-13.321,19.103
				L159.209,398.031L159.209,398.031z"/>
			<path fill="#A19F98" d="M172.061,365.019c0,1.379-0.475,2.536-1.415,3.477c-0.943,0.945-2.106,1.415-3.479,1.415
				c-1.334,0-2.476-0.479-3.416-1.44c-0.945-0.964-1.415-2.113-1.415-3.451c0-1.375,0.48-2.532,1.44-3.476
				c0.966-0.945,2.136-1.417,3.51-1.417c1.376,0,2.515,0.472,3.42,1.417C171.606,362.487,172.061,363.644,172.061,365.019z
				 M171.117,403.512h-7.898v-29.706l7.898-1.239V403.512z"/>
			<path fill="#A19F98" d="M190.629,403.444c-1.418,0.556-2.986,0.835-4.716,0.835c-3.656,0-5.993-1.377-7.017-4.133
				c-0.472-1.26-0.706-3.521-0.706-6.788v-22.545c0-3.54-0.14-6.573-0.411-9.092l8.075-1.83c0.273,1.531,0.41,4.146,0.41,7.84
				v23.521c0,3.024,0,4.5,0,4.418c0.196,2.088,0.904,3.125,2.125,3.125c0.312,0,0.606-0.035,0.883-0.117L190.629,403.444z"/>
			<path fill="#A19F98" d="M206.483,403.444c-1.414,0.556-2.987,0.835-4.715,0.835c-3.657,0-5.995-1.377-7.017-4.133
				c-0.47-1.26-0.706-3.521-0.706-6.788v-22.545c0-3.54-0.136-6.573-0.415-9.092l8.08-1.83c0.275,1.531,0.412,4.146,0.412,7.84
				v23.521c0,3.024,0,4.5,0,4.418c0.195,2.088,0.901,3.125,2.122,3.125c0.313,0,0.606-0.035,0.883-0.117L206.483,403.444z"/>
			<path fill="#A19F98" d="M234.837,400.211l-4.185,4.831c-2.046-0.861-3.46-2.079-4.247-3.649
				c-0.786,0.744-1.396,1.275-1.827,1.589c-1.534,1.1-3.558,1.65-6.071,1.65c-3.223,0-5.718-0.766-7.487-2.294
				c-1.923-1.604-2.887-3.978-2.887-7.112c0-6.893,4.816-10.342,14.446-10.342c0.628,0,1.216,0,1.765,0v-1.225
				c0-1.597-0.197-2.684-0.589-3.267c-0.469-0.779-1.449-1.168-2.936-1.168c-2.43,0-5.326,1.119-8.691,3.362l-3.347-5.66
				c1.414-0.904,3.046-1.728,4.891-2.477c2.91-1.179,5.658-1.769,8.253-1.769c5.265,0,8.51,1.747,9.728,5.245
				c0.392,1.142,0.568,2.947,0.529,5.424l-0.179,10.67c0,1.57,0.156,2.75,0.472,3.535
				C232.873,398.461,233.656,399.349,234.837,400.211z M224.17,390.309h-0.349c-2.363,0-4.007,0.194-4.936,0.592
				c-1.549,0.667-2.321,2.003-2.321,4.007c0,1.099,0.303,2.032,0.913,2.797c0.609,0.766,1.464,1.153,2.564,1.153
				c1.491,0,2.868-0.69,4.128-2.064V390.309L224.17,390.309z"/>
		</g>
		<g>
			<path fill="#A19F98" d="M106.314,429.185c0,4.401-2.984,6.604-8.953,6.604h-9.519V412.45H98.1c2.203,0,3.963,0.528,5.281,1.586
				c1.32,1.059,1.978,2.485,1.978,4.283c0,2.46-1.117,4.156-3.345,5.084C104.881,424.562,106.314,426.49,106.314,429.185z
				 M99.403,419.274c0-1.504-0.999-2.263-2.999-2.263H93.58v4.438h2.564c1.247,0,2.103-0.169,2.565-0.5
				C99.171,420.616,99.403,420.056,99.403,419.274z M99.751,428.531c0-1.681-1.101-2.519-3.302-2.519h-2.739v5.298h2.739
				C98.65,431.311,99.751,430.386,99.751,428.531z"/>
			<path fill="#A19F98" d="M130.476,435.789h-6.864c-0.522-0.753-1.362-2.057-2.523-3.911c-1.418-2.404-2.354-3.922-2.802-4.545
				c-0.449-0.62-0.849-0.934-1.194-0.934l-0.39,0.045v9.345h-5.693v-23.382h9.039c3.101,0,5.333,0.668,6.694,1.999
				c1.361,1.333,2.044,3.028,2.044,5.082c0,1.596-0.472,3.016-1.414,4.261c-0.942,1.246-2.05,2-3.324,2.264
				C125.494,427.661,127.639,430.924,130.476,435.789z M122.742,419.49c0-0.981-0.295-1.694-0.889-2.128
				c-0.597-0.437-1.66-0.652-3.197-0.652h-1.999v5.522h1.911c1.535,0,2.613-0.22,3.237-0.651
				C122.43,421.143,122.742,420.448,122.742,419.49z"/>
			<path fill="#A19F98" d="M153.686,435.789h-6.127l-1.782-4.955h-6.911l-1.651,4.955h-6.126l8.604-23.427h5.911L153.686,435.789z
				 M144.471,426.533c-0.956-3.565-1.636-6.445-2.039-8.648c-0.466,2.203-1.19,5.083-2.174,8.648H144.471z"/>
			<path fill="#A19F98" d="M174.765,428.14c0,2.467-1.006,4.44-3.022,5.932c-2.012,1.49-4.686,2.238-8.016,2.238
				c-2.988,0-5.839-0.651-8.565-1.955l1.915-4.433c2.692,1.158,5.01,1.737,6.953,1.737c2.754,0,4.129-0.765,4.129-2.3
				c0-1.277-1.013-2.145-3.041-2.608l-2.957-0.697c-4.025-0.958-6.041-3.259-6.041-6.91c0-2.173,0.884-3.954,2.652-5.344
				c1.768-1.392,4.042-2.087,6.822-2.087c3.565,0,6.547,0.798,8.954,2.39l-2.739,4.041c-2.201-1.159-4.231-1.738-6.082-1.738
				c-0.929,0-1.685,0.195-2.261,0.587c-0.582,0.391-0.87,0.907-0.87,1.541c0,0.582,0.167,1.016,0.5,1.305
				c0.333,0.288,0.979,0.553,1.933,0.784l3.13,0.737C172.562,422.404,174.765,424.662,174.765,428.14z"/>
			<path fill="#A19F98" d="M186.147,435.789h-6.037v-23.295h6.037V435.789z"/>
			<path fill="#A19F98" d="M207.708,431.096l-1.221,4.693h-13.644v-23.295h5.865l0.045,18.602H207.708z"/>
		</g>
	</g>
	<g>
		<path fill="#A19F98" d="M147.775,324.411c-101.926,0-184.85-82.922-184.85-184.85c0-101.927,82.924-184.85,184.85-184.85
			s184.85,82.924,184.85,184.85S249.702,324.411,147.775,324.411z"/>
		<circle fill="#D8D3C8" cx="147.775" cy="139.562" r="176.719"/>
		<g>
			<path fill="#D8D3C8" d="M147.775,306.275c-91.925,0-166.712-74.787-166.712-166.713c0-91.925,74.787-166.711,166.712-166.711
				c91.926,0,166.712,74.787,166.712,166.711C314.488,231.488,239.701,306.275,147.775,306.275z"/>
			<path fill="none" stroke="#A19F98" stroke-width="2" stroke-miterlimit="10" stroke-dasharray="5.9802,5.9802" d="
				M147.775,306.275c-91.925,0-166.712-74.787-166.712-166.713c0-91.925,74.787-166.711,166.712-166.711
				c91.926,0,166.712,74.787,166.712,166.711C314.488,231.488,239.701,306.275,147.775,306.275z"/>
		</g>
		<g>
			<g>
				<path fill="#4D4E53" d="M154.79,36.365l0.512,1.217c0,0-0.769,1.152,0,3.263c-4.87,1.474-3.074-2.879-3.074-2.879L154.79,36.365
					z"/>
				<path fill="#4D4E53" d="M151.777,27.215l1.28,0.704c0,0-2.943,3.903-1.857,8.766c-4.798,1.41-1.147-8.382-1.147-8.382
					L151.777,27.215z"/>
				<path fill="#4D4E53" d="M64.162,130l5.695,6.464c0,0-4.095-0.64-6.143,2.944c-4.865,1.409,1.536-6.655,1.536-6.655L64.162,130z"
					/>
				<path fill="#4D4E53" d="M56.991,128.016l3.396,8.385c0,0-1.988-1.026-3.839,1.022c-3.459-3.394,1.533-6.655,1.533-6.655
					L56.991,128.016z"/>
				<path fill="#4D4E53" d="M54.691,127.183l0.638,5.759c0,0-1.982-1.853-3.713,1.087c-3.458-3.328,1.406-6.719,1.406-6.719
					L54.691,127.183z"/>
				<path fill="#4D4E53" d="M52.766,118.481l1.855,7.358c0,0-3.263-3.584-4.988-0.574c0.187-3.521,3.325-5.312,3.325-5.312
					L52.766,118.481z"/>
				<path fill="#4D4E53" d="M136.928,26.253l1.345-1.151c0,0,0.062,4.223,4.801,5.631c-1.089,4.929-6.146,1.537-6.146,1.537V26.253z
					"/>
				<path fill="#4D4E53" d="M130.784,33.36l1.156-1.153c0,0,1.277,3.52,6.077,4.864c-1.152,4.991-6.272,2.368-6.272,2.368
					L130.784,33.36z"/>
				<path fill="#4D4E53" d="M229.157,170.001l-2.627,7.36c0,0-6.205-4.864-9.149,0.769c-1.089-4.93,3.069-11.266,3.069-11.266
					L229.157,170.001z"/>
				<path fill="#4D4E53" d="M121.184,227.089l-0.83,4.228c0,0,1.855,1.407,1.342,4.287c4.289-2.753,10.369-7.425,10.369-7.425
					L121.184,227.089z"/>
				<path fill="#4D4E53" d="M125.151,220.432l-2.371,4.227c0,0,0.963,0.96,0.131,3.647c4.288-2.75,7.233-3.2,7.233-3.2
					L125.151,220.432z"/>
			</g>
			<path fill="#F7F4EC" d="M257.639,102.03l-0.576-2.175l-0.317-2.815l-0.901-2.686l-0.958-2.689l-1.279-0.961l-1.345-1.022
				l-2.944-0.19c0,0-3.326-0.321-3.839-0.577c-1.217-0.642-3.261-1.857-3.649-2.177c-0.319-0.319-0.382-0.447-1.088-0.639
				l-1.089-0.641l-2.944-2.944c-3.324-3.392-7.807-6.785-11.775-8.896l-2.751-1.407h-4.801h-4.802l-0.383-0.385l-0.386-0.385
				l-2.045-0.065l-2.05-0.063l-2.945-1.472l-2.945-1.409l-2.43,0.767c-1.346,0.386-2.751,0.961-3.075,1.152l-0.575,0.386
				l-0.126-1.152l-0.193-1.088l-0.449,0.255l-0.382,0.256l-0.514-1.28c-0.318-0.64-0.511-1.344-0.575-1.535
				c0-0.257-0.767-1.153-1.725-2.176l-1.667-1.793l-1.409,0.255l-1.405,0.192v-0.384c0-0.257-0.448-0.833-1.025-1.408l-1.087-1.024
				h-0.831h-0.77l-0.962-0.897l-0.957-0.895l-0.576,0.19l-0.511,0.192l-1.407-0.768l-1.346-0.703l-0.449,0.255l-0.387,0.256v-0.447
				v-0.384l-2.75-0.578l-2.751-0.574l-0.963,0.444c-0.513,0.32-0.895,0.385-0.895,0.193c0-0.129-1.023-0.066-1.536,0.832
				l-0.895,1.537l-1.15,0.961l-0.449,1.408l-0.963,0.512l-1.406,1.854l-0.958,0.513c-1.282,0.702-1.282,0.702-1.413-0.448
				l-0.063-0.96h0.964h0.896l1.024-0.96c0-0.255,0.637-1.088,1.343-1.919l1.344-1.538l0.063-0.896
				c0.063-0.448,0.257-1.472,0.449-2.177l0.381-1.344l-1.406-0.256c-0.768-0.191-2.304-0.51-3.394-0.766l-1.921-0.386l-0.83,0.386
				l-0.831,0.447l-2.751-0.511l-2.754-0.513l-1.343,0.703l-1.344,0.639l-0.511,2.306l-0.51,2.304l-0.448,0.127
				c-0.321,0.066-1.666,0.832-3.076,1.731c-1.407,0.894-2.876,1.598-3.196,1.598h-0.645l1.345-1.217
				c0.769-0.639,1.345-1.344,1.28-1.599c0-0.191,0-0.897,0-1.473l0.064-1.152l2.561-2.688c1.344-1.473,2.876-2.752,3.326-2.88
				l0.769-0.255l0.963-1.792l0.958-1.728l1.024-0.257l1.089-0.255l0.574-1.218c0.32-0.703,0.577-1.726,0.577-2.368v-1.088
				l-0.641-0.832l-0.575-0.832l-1.474-0.385l-1.472-0.383l-1.407-2.88l-1.412-2.816l-0.956-4.416l-0.962-4.415l-0.577-0.961
				l-0.638-0.961h-1.025h-1.088l-0.255,1.152l-0.318,1.217l-1.989,2.368l-1.919,2.368l-1.279,2.688
				c-0.769,1.537-1.664,3.137-2.113,3.584l-0.765,0.896h-1.153h-1.15v-0.385v-0.447l-2.052,0.192
				c-1.151,0.064-2.812,0.32-3.645,0.447l-1.538,0.257l-2.563-1.28l-2.495-1.279l-1.981,0.512l-1.988,0.575l-0.894-0.321
				l-0.895-0.254l-0.769,0.254c-0.449,0.191-0.901,0.643-1.025,1.025l-0.319,0.769l0.829,1.215l0.834,1.279l-1.539-0.319
				c-0.831-0.192-2.944-0.448-4.668-0.512l-3.074-0.13l-1.152,0.897l-1.213,0.961h-0.899h-0.832l-0.318,0.447l-0.319,0.51h-1.09
				h-1.156l-1.599,1.217l-1.593,1.153l-1.283-0.577c-1.986-0.832-3.261-1.856-4.225-3.392l-0.894-1.28l0.318-0.576l0.382-0.577
				l-1.087-0.767l-1.088-0.767l0.258-1.986c0.191-1.152,0.447-2.816,0.642-3.776l0.251-1.792l0.899-0.64l0.831-0.641l-0.766-2.367
				l-0.77-2.432h-1.086h-1.15v-0.448c0-0.321,0.254-0.96,0.575-1.473l0.575-0.895l-0.833-1.28l-0.831-1.278l-1.601,0.255
				c-0.831,0.19-1.856,0.384-2.175,0.447l-0.575,0.192l0.257,0.959l0.255,0.962l-1.087,1.279l-1.156,1.28h-0.958h-0.963
				l-1.661,1.024l-1.601,1.022l-2.432,0.13l-2.429,0.126l-1.283,0.833l-1.28,0.832v0.961v1.023l-0.382-0.064
				c-0.193,0-0.895-0.448-1.601-0.96l-1.219-0.962H62.05h-2.43l-0.638-0.577l-0.513-0.575l-1.156-0.128
				c-0.639,0-1.532-0.256-1.981-0.449L54.5,23.814v1.023v1.022l1.663,1.345l1.73,1.279v1.537v1.537l0.833,2.239
				c0.443,1.215,1.018,2.496,1.277,2.816l0.512,0.641h1.794l1.795,0.065l-1.088,0.384c-0.581,0.256-1.22,0.705-1.413,0.96
				l-0.319,0.511h-0.956h-0.963l-0.319,1.538l-0.256,1.536l-0.832,0.258c-0.45,0.129-1.087,0.384-1.537,0.64
				c-0.382,0.254-1.47,0.831-2.431,1.216l-1.662,0.769l-1.407,1.598l-1.342,1.601v-1.215v-1.153l-0.899,0.385
				c-0.447,0.19-1.665,0.575-2.627,0.896L44.2,47.752l-1.732-1.345l-1.725-1.278h-0.706h-0.704l0.254-1.154l0.193-1.086
				l-1.538-2.112l-1.603-2.042l-1.407,0.96c-0.769,0.577-1.538,1.28-1.728,1.538l-0.324,0.512l-0.957-0.899l-0.962-0.895
				l-0.832,1.088l-0.83,1.087l-4.865,0.127l-4.865,0.13v1.472c0,0.832,0.064,1.984,0.064,2.56l0.063,1.088l2.113,0.192l2.111,0.128
				l0.13,1.216l0.189,1.215l-0.769-0.703l-0.761-0.642l-2.245,0.705l-2.238,0.639v2.817v2.815l1.471,1.025l1.475,1.086v0.641
				c0,0.385,0.381,1.472,0.831,2.431l0.831,1.666l-0.894,5.376c-1.025,6.72-2.627,14.978-2.883,15.233
				c-0.062,0.064-0.96-0.191-1.855-0.577l-1.725-0.704l-1.155,0.769L13.534,83.6l-2.75,0.703c-3.262,0.896-5.058,1.728-6.656,3.265
				c-0.575,0.575-1.726,1.535-2.495,2.047L0.289,90.64l-0.062,1.664l-0.067,1.728l-0.64,1.216l-0.639,1.279v1.216v1.217
				l-1.987,2.239l-1.917,2.24l0.254,0.899l0.255,0.895l-0.704,0.832l-0.768,0.833l1.217,1.917c0.639,1.089,1.346,2.434,1.602,2.945
				c0.255,0.577,1.342,2.05,2.493,3.328l2.052,2.304l-0.515,0.962c-0.256,0.574-0.513,1.087-0.513,1.279v0.257h2.176h2.244
				l0.957,1.022l1.025,0.96v0.704v0.64l1.215,0.32l1.217,0.321l2.114-0.321l2.111-0.32l1.788-1.728l1.857-1.793v4.543v4.48
				l1.411,0.705l1.345,0.702l1.214-0.64l1.218-0.702h3.07h3.005l1.344,0.511l1.345,0.512l1.731-1.217
				c1.024-0.639,2.494-1.601,3.326-2.112c0.899-0.509,2.818-1.791,4.417-2.878c4.608-3.202,5.377-3.521,9.153-3.84l2.812-0.257
				l-0.256,2.049c-0.319,2.624-0.319,2.944,0.194,6.529l0.449,3.008l1.408,1.663c0.832,0.96,2.495,2.369,3.777,3.263l2.37,1.602
				h2.432h2.429l0.321,0.51l0.255,0.446h0.962h0.896l1.792,1.218l1.727,1.215l1.599,0.321l1.601,0.32l1.343,1.28l1.282,1.216
				l2.493-0.257l2.432-0.319l1.599,1.087l1.664,1.087l0.324,1.73l0.381,1.728l-0.192,2.688l-0.188,2.686l0.896,1.024l0.962,0.959
				l0.128,2.563l0.063,2.494l1.793,0.321c0.957,0.127,3.645,0.255,6.014,0.255h4.289l-0.444,1.473l-0.386,1.471l0.449,1.729
				l0.449,1.665l1.47,0.512l1.475,0.511l1.018,1.599l1.026,1.665l-0.319,3.136l-0.256,3.136l-1.537,3.586l-1.533,3.582l1.212,3.711
				l1.151,3.715l-0.256,3.26l-0.319,3.205l0.254,0.383c0.389,0.574,2.754,1.151,5.633,1.344l2.432,0.189l0.644-0.577l0.701-0.511
				l1.281,0.511c0.639,0.325,1.663,0.577,2.175,0.577h0.894l0.324,1.857c0.189,1.025,0.513,2.367,0.769,2.945
				c0.25,0.64,0.443,1.918,0.443,2.813v1.666l1.088,1.343l1.156,1.281l2.044-0.704l2.05-0.702l0.444,0.319
				c0.257,0.131,0.644,0.768,0.836,1.341l0.321,1.091l-0.575,3.2l-0.582,3.262l-0.444,0.256l-0.449,0.256v1.218v1.214l1.988-0.317
				l1.919-0.319l0.576,1.409c0.32,0.768,0.637,2.621,0.831,4.028l0.255,2.626l-0.575,1.153l-0.643,1.086l-2.875,1.408
				c-1.602,0.769-2.944,1.537-2.944,1.729c0,0.189-0.9,0.96-2.051,1.664c-2.627,1.536-4.926,3.968-7.938,8.194
				c-1.215,1.727-2.689,3.647-3.327,4.158c-0.575,0.513-1.47,1.599-2.05,2.304l-0.958,1.407l1.152,0.386l1.085,0.385l1.347-0.703
				l1.279-0.767l1.855,1.663l1.856,1.729l0.958,1.853l0.963,1.92l1.148-1.086l1.158-1.09l0.763,1.22l0.77,1.151l1.986,1.087
				c1.088,0.64,2.238,1.537,2.558,1.986l0.642,0.894l1.664,0.639l1.663,0.705l0.707,1.602l0.638,1.599l1.023,0.576l1.025,0.514
				l-1.025,1.727l-1.023,1.728v1.151c0,0.641,0.125,1.537,0.319,1.922l0,0c0.449,1.151,0.644,1.023,3.394-1.346l2.431-2.173
				l0.831-1.664c0.452-0.898,1.088-2.369,1.409-3.265l0.643-1.664l3.263-2.626c4.289-3.391,5.313-4.671,8.445-10.433l2.625-4.734
				l3.584-3.714l3.586-3.646v-0.768c0-0.447,0.385-1.795,0.833-3.01c0,0,0.575-1.215,1.024-2.305l0.126-1.15v-1.023l-0.448,0.254
				l-0.444,0.259l-0.514-1.474l-0.513-1.471l0.513-2.82c0.257-1.534,0.706-3.26,1.023-3.771l0.445-0.961l-0.763-0.58l-0.838-0.64
				l0.449-0.255l0.45-0.319l0.318,0.767l0.32,0.77l1.406-1.153l1.476-1.089v-0.639l0.063-0.643l2.111-1.344
				c1.15-0.767,2.819-1.918,3.776-2.688c0.963-0.701,2.817-1.729,4.094-2.301l2.369-1.023h1.407h1.412l0.639-0.641
				c0.382-0.387,1.599-0.964,2.625-1.346c1.09-0.32,2.302-0.768,2.688-0.961l0.77-0.384v-0.77c0-0.384,0.186-0.895,0.381-1.088
				l0.319-0.383l0.769,0.64l0.769,0.642v-0.577v-0.574l0.449,0.253l0.513,0.321h6.206h6.209l0.381-0.385
				c0.196-0.256,0.449-0.96,0.576-1.663l0.13-1.217l2.494-0.96c1.345-0.578,2.757-1.152,3.075-1.409l0.575-0.383v-1.728v-1.664
				l0.768-1.73l0.702-1.729l1.601-1.664c0.898-0.895,2.111-2.175,2.625-2.814l1.023-1.28c-0.961-2.751,0.957,0.447,2.369-3.904
				c0.188-0.766,0.513-3.006,0.771-4.989l0.381-3.586l0.513-3.39l0.768-3.072l2.238,1.087v-2.176l1.407-4.289l1.412-4.353
				l-0.45-3.84l-0.513-3.904l0.77-2.174l0.77-2.239l-0.45-0.77l-0.449-0.767l0.513-0.32l0.514-0.32v-1.344v-1.408l0.899-0.832
				c1.019-0.447-0.514-2.43-0.389-2.624l0.899-0.256l1.407,2.752l1.15-0.96c1.794-1.599,5.377-6.464,6.338-8.64
				c0.576-1.152,1.276-2.495,1.662-3.007l0.703-0.833c1.091-1.023,1.855-1.28,2.755-2.174c1.024-0.448,2.046-0.769,2.175-0.833
				c0.192,0,1.089-0.96,2.045-2.176l1.729-2.111c0.896-0.385,1.471-1.088,2.24-2.049l2.369-3.072
				c1.281-1.729,2.564-3.518,2.752-4.096c0.511-1.151,0.19-0.318,0.449-2.239l0.381-3.776l0.255-3.329
				C257.956,103.247,258.151,102.736,257.639,102.03z"/>
			<path fill="#006838" d="M217.062,150.736c-3.006-3.071-3.455-7.23-1.663-9.472c-4.481,2.369-5.25,8.64-0.58,14.658
				c-1.789,0.894-2.688,1.278-4.096,0.51c-1.341-0.767-2.881-2.304-2.556-4.288c-1.22,1.855-2.431,3.904-0.387,7.104
				c1.218-0.767,6.207-0.447,6.399,3.394c-6.015,8.001-27.268-0.578-39.426,15.488c4.161-34.434-2.236-68.801-21.054-92.931
				c5.185,3.52,15.81,3.904,17.66-1.473c2.305-6.593-1.727-15.168-12.796-24.574c-6.53-5.569-9.475-16.386-3.332-21.504
				c0.192-0.32,0-1.025-0.442-1.28c-2.884,0.768-5.7,2.751-6.593,6.657c-1.984-3.457,0.386-11.584,4.862-15.104
				c-0.255-0.704-0.51-0.898-1.087-1.153c-5.376,2.112-9.215,8.896-9.151,15.296c-1.919-3.839-5.501-13.568-4.544-16.96
				c-0.958,0.255-1.215,0.318-2.045,0.896c-1.538,4.544,0.381,16.32,3.132,19.328c-2.432-2.111-8.001-10.047-7.421-13.12
				c-1.025-0.385-1.855-0.192-2.754,0.32c0,7.553,4.799,18.305,13.508,22.335c0.125,2.177-3.843,3.777-6.4-0.384
				c0.061,3.2,0.767,4.864,4.157,7.36c1.536-1.217,3.971-2.176,6.976-0.895c4.672,1.919,5.506,23.231-2.814,11.328
				c-8.318-11.841-21.635-23.937-39.938-23.617c-2.494,0.065-5.314,1.28-8.063,1.345c-6.02,0.191-12.16-1.792-18.114,0.639
				c-2.432,1.28-3.582,3.713-5.888,5.376c-4.607,3.265-12.284,1.793-15.104,7.361c-0.193,1.343-0.256,4.864-0.381,6.272
				c-5.314,5.568-8.576,12.865-8.063,19.776c1.02,1.793,2.945,6.594,4.476,7.938c17.282,2.561,35.906-1.729,44.544-12.929
				c7.044-9.09,10.564-0.895,9.732,3.649c-4.869,25.407-32.579,25.729-37.762,26.56c-3.582,0.385-5.569-1.344-4.545-4.48
				c-3.97-0.703-8.958,1.281-12.482,3.968c3.457-1.342,7.618-0.447,6.977,1.539c-3.264,1.021-9.471,3.326-10.622,6.463
				c-0.192,1.087-0.063,1.92,0.257,3.137c1.661-2.88,3.263-3.777,6.014-4.417c-2.43,2.049-4.477,4.991-6.075,11.009
				c0.317,0.831,0.957,1.409,2.045,2.174c0.642-4.734,2.816-6.718,5.311-7.741c-1.407,1.983-2.43,5.438-2.236,9.919
				c0.442,0.704,1.276,0.896,1.855,1.217c0-3.904,1.213-7.04,3.326-9.471c-0.381,3.006,0.449,9.665,1.855,11.902
				c0.639,0.193,1.345,0.065,1.984-0.446c-3.326-10.946,2.754-19.394,8.318-18.561c14.527,2.24,45.507-4.99,43.775-21.12
				c21.059,47.104,0.582,59.456,21.571,98.945c-5.12-2.431-13.759-5.057-19.646-2.944c-3.396,3.584-0.899,8,0.895,12.159
				c2.626,6.145,6.976,11.97,11.902,14.913c-0.829,0.641,0,0.193-1.342,0.962c-0.382-1.538-2.301-2.561-4.034-3.33
				c-1.28,1.089-1.6,1.343-2.371,4.226c0.707,0.129,2.115,1.151,1.926,1.921c-0.836-0.063-2.688,0.254-3.524,0.511
				c-0.382,1.474-1.018,1.728-0.83,4.16c1.086-0.19,1.922-0.321,2.623,0.127c-4.737,2.881-7.869,10.88-6.588,14.784
				c1.918-4.222,5.051-8.768,8.509-9.664c-1.79,4.737-2.371,15.424,5.186,24.319c-7.745-14.463,1.276-30.654,7.807-30.722
				c-2.307,6.145,3.775,15.812,8.895,19.397c-6.976-12.996-3.199-17.923-3.199-22.212c0.062-5.888-5.827-11.135-6.595-13.76
				c-1.088-3.776,2.306-9.024,7.62,1.407c5.313,10.434,11.072,21.888,19.584,30.783c36.927,38.849,84.801,21.505,102.337,1.217
				c15.427-17.855,20.034-33.474,18.371-61.249c-1.926-34.175-15.746-47.873-21.76-75.137
				c-12.932-58.944,14.459-76.226,27.901-82.049c-12.929,3.457-44.927,22.143-43.327,72.064
				c1.024,32.001,25.279,68.354,11.01,101.058c-4.928,11.199-18.305,34.881-42.945,34.05c-10.433-0.387-35.074-12.544-35.521-32.963
				c-0.704-29.439,37.632-31.615,39.357-31.553c3.013,0.131,7.233,3.328,6.914,6.209c1.856-0.064,3.97-6.593,2.881-8.96
				c-6.976-15.36,4.927-31.425,9.667-35.968c-11.141,6.848-13.184,10.239-16.643,19.135c-1.599-8.384,3.134-13.376,5.634-16.129
				C223.014,137.105,216.999,144.785,217.062,150.736z"/>
			<g>
				<path fill="#8DC63F" d="M214.119,162.001c-0.705-3.201-5.188-3.455-6.338-2.752c-0.444-0.639-0.701-1.279-0.896-1.855
					c0.127,1.154,0.45,2.37,1.152,3.521C209.188,160.144,213.413,158.994,214.119,162.001z"/>
				<path fill="#8DC63F" d="M174.755,178.195c0.063-0.707,0.13-1.344,0.194-1.985C174.885,176.85,174.818,177.488,174.755,178.195z"
					/>
				<path fill="#8DC63F" d="M180.775,207.121c-0.707-29.377,36.986-34.432,38.716-34.369c2.945,0.063,7.36,1.726,7.039,4.608
					c0.321-2.882-3.899-6.08-6.911-6.209c-1.727-0.063-40.063,2.112-39.358,31.553C180.261,204.24,180.45,205.714,180.775,207.121z"
					/>
				<path fill="#8DC63F" d="M53.536,97.36c17.282,2.56,35.587,1.791,44.289-9.409c5.444-7.04,9.026-3.84,9.988,0.063
					c0.832-4.543-2.688-12.608-9.732-3.583C89.441,95.63,70.818,99.92,53.536,97.36z"/>
				<path fill="#8DC63F" d="M50.783,115.665c3.458-1.409,9.857-1.985,9.216,0c0.642-1.985-3.52-2.88-6.977-1.538
					c0,0,0.066,0,0.066-0.065C52.259,114.64,51.423,115.152,50.783,115.665z"/>
				<path fill="#8DC63F" d="M216.674,150.352c0.132,0.129,0.257,0.256,0.388,0.384c0-3.519,2.045-7.551,4.734-10.687
					C219.106,143.055,216.999,146.959,216.674,150.352z"/>
				<path fill="#8DC63F" d="M136.928,57.997c0.645,1.857,1.921,3.521,3.97,5.056c1.599-1.152,3.327-2.047,6.271-0.831
					c2.562,1.087,4.1,7.68,3.521,11.329c0.898-3.904-0.576-11.456-3.264-12.608c-3.006-1.28-5.441-0.321-6.977,0.896
					C138.531,60.43,137.504,59.28,136.928,57.997z"/>
				<path fill="#8DC63F" d="M65.505,110.161c-0.192,0-0.319-0.065-0.449-0.065C65.186,110.096,65.312,110.096,65.505,110.161z"/>
				<path fill="#8DC63F" d="M143.589,227.281c0-2.624-0.77-4.545-1.795-6.146C142.818,223.057,143.589,225.106,143.589,227.281z"/>
				<path fill="#8DC63F" d="M214.818,155.922c-3.201-4.096-3.836-8.385-2.495-11.391c-1.601,3.263-1.406,7.872,1.345,11.965
					C213.987,156.305,214.373,156.115,214.818,155.922z"/>
				<path fill="#8DC63F" d="M116.577,245.777c-0.062,0.131-0.126,0.257-0.188,0.385C116.45,246.033,116.514,245.906,116.577,245.777
					z"/>
				<path fill="#8DC63F" d="M136.992,213.522c0.256,0.767,0.899,1.792,1.73,2.942l0,0c-1.087-3.775,0.064-9.533,5.379,0.896
					c5.313,10.369,11.583,19.458,20.095,28.354c-8.513-8.896-14.271-20.354-19.584-30.784
					C139.298,204.56,135.904,209.745,136.992,213.522z"/>
				<path fill="#8DC63F" d="M137.892,230.096c-2.369,0-5.12,2.242-7.231,5.696c1.726-2.303,3.837-3.647,5.887-3.647
					c-2.304,6.146,5.12,13.762,10.241,17.347C141.667,245.906,135.585,236.24,137.892,230.096z"/>
				<path fill="#8DC63F" d="M124.897,236.497c-1.79,0.447-3.458,1.855-4.927,3.712c1.025-1.151,2.239-1.916,3.712-2.367
					c-1.793,4.801-1.154,14.08,6.402,22.975C122.528,251.922,123.109,241.236,124.897,236.497z"/>
				<path fill="#8DC63F" d="M171.362,83.727c-1.853,5.376-12.478,4.993-17.66,1.473c1.405,1.727,2.687,3.52,3.901,5.377
					c5.695,1.022,11.969,0.704,13.826-2.305c2.431-3.968,1.855-9.151-0.833-14.526C172.197,77.389,172.455,80.784,171.362,83.727z"
					/>
				<path fill="#8DC63F" d="M127.202,166.801c-1.918-19.201,2.882-35.201-11.395-67.072c1.732,16.129-29.248,23.36-43.775,21.119
					c14.527,2.241,36.735,1.857,44.8-13.439C127.521,137.937,124.965,151.056,127.202,166.801z"/>
			</g>
			<g>
				<path fill="#8DC63F" d="M287.081,29.901l0.254,0.385c0.384-0.192,0.769-0.385,1.15-0.576l-0.254-0.322
					C287.847,29.582,287.46,29.71,287.081,29.901z"/>
				<path fill="#8DC63F" d="M282.216,33.295c0.507-0.321,0.893-0.578,1.276-0.834l-0.514-0.766
					c-0.506,0.256-0.892,0.512-1.404,0.766L282.216,33.295z"/>
				<path opacity="0.2" fill="#8DC63F" enable-background="new    " d="M282.854,169.104c-0.132-0.444-0.132-0.894-0.257-1.407
					l-19.965,1.985c0.062,0.638,0.124,1.218,0.187,1.856L282.854,169.104z"/>
				<path opacity="0.6" fill="#8DC63F" enable-background="new    " d="M279.847,157.329c-0.193-0.577-0.389-1.09-0.576-1.664
					h-19.14c0.131,0.767,0.32,1.472,0.451,2.175L279.847,157.329z"/>
				<path opacity="0.3" fill="#8DC63F" enable-background="new    " d="M282.216,166.288c-0.131-0.511-0.131-1.024-0.256-1.536
					l-19.779,1.472c0.063,0.702,0.195,1.345,0.256,1.985L282.216,166.288z"/>
				<path opacity="0.5" fill="#8DC63F" enable-background="new    " d="M280.741,160.337c-0.125-0.512-0.32-1.024-0.448-1.537
					l-19.392,0.512c0.131,0.642,0.317,1.344,0.448,2.048L280.741,160.337z"/>
				<path opacity="0.4" fill="#8DC63F" enable-background="new    " d="M281.571,163.344c-0.124-0.51-0.256-1.023-0.381-1.538
					l-19.584,0.962c0.126,0.703,0.257,1.344,0.32,2.047L281.571,163.344z"/>
				<path fill="#8DC63F" d="M284.773,31.695c0.387-0.255,0.896-0.449,1.279-0.704l-0.387-0.512
					c-0.506,0.192-0.895,0.385-1.404,0.575L284.773,31.695z"/>
				<path fill="#8DC63F" d="M268.195,47.885c0.389-0.639,0.832-1.278,1.219-1.854l-2.431-2.37c-0.512,0.576-1.025,1.088-1.536,1.665
					L268.195,47.885z"/>
				<path fill="#8DC63F" d="M266.339,51.214c0.39-0.64,0.707-1.343,1.09-2.048l-2.941-2.689c-0.513,0.577-1.025,1.218-1.537,1.795
					L266.339,51.214z"/>
				<path fill="#8DC63F" d="M270.248,44.813c0.447-0.576,0.83-1.152,1.279-1.661l-1.921-1.986c-0.579,0.448-1.086,0.961-1.599,1.475
					L270.248,44.813z"/>
				<path fill="#8DC63F" d="M279.717,35.085c0.449-0.319,0.899-0.639,1.344-0.96l-0.768-0.959c-0.507,0.32-0.959,0.576-1.471,0.894
					L279.717,35.085z"/>
				<path fill="#8DC63F" d="M277.222,37.134c0.449-0.384,0.896-0.767,1.344-1.151l-0.964-1.152c-0.511,0.382-1.02,0.703-1.53,1.024
					L277.222,37.134z"/>
				<path fill="#8DC63F" d="M274.79,39.437c0.447-0.446,0.894-0.896,1.343-1.278l-1.217-1.409c-0.514,0.384-1.021,0.768-1.536,1.152
					L274.79,39.437z"/>
				<path fill="#8DC63F" d="M272.483,41.997c0.449-0.51,0.833-1.023,1.279-1.473l-1.536-1.727c-0.511,0.447-1.019,0.896-1.531,1.344
					L272.483,41.997z"/>
				<path fill="#8DC63F" d="M262.119,105.361l-14.464-5.504c0,0.19,0,0.447,0.063,0.702c0,0.833,0.064,1.601,0.064,2.434
					l14.85,5.183C262.437,107.217,262.244,106.254,262.119,105.361z"/>
				<path fill="#8DC63F" d="M261.35,100.751l-13.696-5.696c0,1.088,0,2.112,0,3.2l14.144,5.376
					C261.606,102.671,261.477,101.712,261.35,100.751z"/>
				<path opacity="0.7" fill="#8DC63F" enable-background="new    " d="M278.822,154.194c-0.194-0.578-0.448-1.152-0.64-1.729
					l-18.946-0.447c0.193,0.767,0.381,1.472,0.512,2.24L278.822,154.194z"/>
				<path fill="#8DC63F" d="M275.049,144.337c-0.259-0.704-0.516-1.344-0.772-1.984l-18.174-1.92
					c0.192,0.832,0.446,1.665,0.706,2.432L275.049,144.337z"/>
				<path opacity="0.8" fill="#8DC63F" enable-background="new    " d="M276.967,149.2l-18.69-0.96
					c0.193,0.769,0.388,1.537,0.58,2.304l18.815,0.448C277.479,150.418,277.222,149.776,276.967,149.2z"/>
				<path fill="#8DC63F" d="M264.675,54.861c0.32-0.765,0.643-1.536,1.026-2.239l-3.65-3.137c-0.508,0.642-0.957,1.28-1.469,1.985
					L264.675,54.861z"/>
				<path fill="#8DC63F" d="M255.655,138.896l17.983,1.92c-0.322-0.704-0.579-1.408-0.899-2.11l-17.79-2.37
					C255.143,137.167,255.398,138.065,255.655,138.896z"/>
				<path opacity="0.9" fill="#8DC63F" enable-background="new    " d="M257.83,146.769l18.623,0.961
					c-0.256-0.642-0.51-1.28-0.77-1.922l-18.494-1.407C257.443,145.169,257.639,146,257.83,146.769z"/>
				<path fill="#8DC63F" d="M270.504,133.328c-0.256-0.768-0.576-1.537-0.897-2.303l-17.088-3.264
					c0.255,0.959,0.513,1.854,0.768,2.816L270.504,133.328z"/>
				<path fill="#8DC63F" d="M272.103,137.105c-0.319-0.703-0.639-1.409-0.895-2.177l-17.479-2.815
					c0.257,0.897,0.514,1.793,0.77,2.688L272.103,137.105z"/>
				<path fill="#8DC63F" d="M289.893,29.071c0.387-0.192,0.77-0.385,1.151-0.577c-0.382,0.129-0.895,0.255-1.276,0.447
					L289.893,29.071z"/>
				<path opacity="0.1" fill="#8DC63F" enable-background="new    " d="M283.366,171.984c0-0.512-0.131-0.96-0.258-1.41
					l-20.155,2.434c0.061,0.64,0.061,1.28,0.124,1.856L283.366,171.984z"/>
				<path fill="#8DC63F" d="M260.451,71.311c0.131-0.896,0.256-1.855,0.389-2.752l-6.977-4.8c-0.388,0.832-0.705,1.729-1.089,2.624
					L260.451,71.311z"/>
				<path fill="#8DC63F" d="M260.068,89.742c-0.062-0.96-0.126-1.982-0.192-2.944l-10.939-5.824
					c-0.193,1.025-0.325,2.049-0.45,3.136L260.068,89.742z"/>
				<path fill="#8DC63F" d="M259.812,85.072c0-0.962,0-1.984,0-2.945l-9.981-5.632c-0.257,0.961-0.448,1.983-0.638,3.009
					L259.812,85.072z"/>
				<path fill="#8DC63F" d="M260.006,75.855c0.062-0.96,0.127-1.919,0.256-2.88l-8-5.186c-0.32,0.961-0.574,1.857-0.896,2.817
					L260.006,75.855z"/>
				<path fill="#8DC63F" d="M259.812,80.463c0-1.024,0-1.985,0.064-2.944l-8.958-5.439c-0.257,0.959-0.514,1.918-0.769,2.88
					L259.812,80.463z"/>
				<path fill="#8DC63F" d="M262.053,62.735c0.255-0.897,0.449-1.729,0.704-2.561l-5.12-4.033c-0.449,0.769-0.895,1.6-1.279,2.369
					L262.053,62.735z"/>
				<path fill="#8DC63F" d="M261.095,66.959c0.191-0.896,0.382-1.793,0.573-2.688l-6.013-4.416c-0.389,0.832-0.838,1.664-1.22,2.496
					L261.095,66.959z"/>
				<path fill="#8DC63F" d="M263.271,58.702c0.254-0.831,0.511-1.663,0.83-2.432l-4.353-3.582c-0.448,0.702-0.894,1.472-1.343,2.174
					L263.271,58.702z"/>
				<path fill="#8DC63F" d="M267.494,125.391c-0.32-0.833-0.643-1.663-0.899-2.496l-16.315-4.16
					c0.187,1.025,0.443,1.986,0.701,3.009L267.494,125.391z"/>
				<path fill="#8DC63F" d="M260.451,94.416c-0.064-0.96-0.188-1.983-0.252-2.944l-11.907-5.825
					c-0.126,1.024-0.255,2.049-0.318,3.136L260.451,94.416z"/>
				<path fill="#8DC63F" d="M268.963,129.425c-0.318-0.769-0.574-1.599-0.892-2.434l-16.706-3.646
					c0.257,0.96,0.514,1.92,0.766,2.879L268.963,129.425z"/>
				<path fill="#8DC63F" d="M264.738,116.943c-0.251-0.897-0.444-1.792-0.701-2.687l-15.553-4.866
					c0.193,1.024,0.32,2.05,0.511,3.071L264.738,116.943z"/>
				<path fill="#8DC63F" d="M266.021,121.233c-0.257-0.898-0.514-1.73-0.77-2.626l-15.934-4.479c0.191,0.96,0.381,1.984,0.576,3.009
					L266.021,121.233z"/>
				<path fill="#8DC63F" d="M261.095,99.087c-0.193-1.024-0.319-1.982-0.45-2.944l-12.801-5.823
					c-0.062,1.022-0.126,2.111-0.126,3.199L261.095,99.087z"/>
				<path fill="#8DC63F" d="M263.651,112.593c-0.189-0.64-0.32-1.344-0.509-2.05c-0.066-0.255-0.066-0.447-0.129-0.704
					l-15.103-5.247c0.126,1.024,0.255,2.112,0.381,3.201L263.651,112.593z"/>
			</g>
		</g>
	</g>
</g>
</svg>
